<svg width="12" height="16" viewBox="0 0 12 16" fill="none" xmlns="http://www.w3.org/2000/svg">
<path d="M1 7C0.447715 7 0 7.44772 0 8C0 8.55228 0.447715 9 1 9V7ZM11.7071 8.70711C12.0976 8.31658 12.0976 7.68342 11.7071 7.29289L5.34315 0.928932C4.95262 0.538408 4.31946 0.538408 3.92893 0.928932C3.53841 1.31946 3.53841 1.95262 3.92893 2.34315L9.58579 8L3.92893 13.6569C3.53841 14.0474 3.53841 14.6805 3.92893 15.0711C4.31946 15.4616 4.95262 15.4616 5.34315 15.0711L11.7071 8.70711ZM1 9H11V7H1V9Z" fill="#E6783F"/>
</svg>
