<svg width="38" height="35" viewBox="0 0 38 35" fill="none" xmlns="http://www.w3.org/2000/svg">
<g id="Buy 3">
<g id="Vector">
<path d="M15.9017 20.1152C15.2372 20.1152 14.6985 20.6539 14.6985 21.3183C14.6985 21.9828 15.2372 22.5215 15.9017 22.5215H25.5267C26.1911 22.5215 26.7298 21.9828 26.7298 21.3183C26.7298 20.6539 26.1911 20.1152 25.5267 20.1152H15.9017Z" fill="white"/>
<path fill-rule="evenodd" clip-rule="evenodd" d="M2.63135 1.77653C2.4702 1.1319 1.81698 0.739971 1.17235 0.901128C0.527723 1.06229 0.135792 1.7155 0.296949 2.36013L1.98412 9.10882L3.55429 15.6602C4.22194 18.446 4.74746 20.6387 5.37107 22.3422C6.01076 24.0895 6.7952 25.4461 8.05379 26.4863C8.1624 26.5761 8.27306 26.6633 8.38568 26.748C9.6906 27.7295 11.1926 28.1762 13.0409 28.391C14.8428 28.6004 17.0976 28.6004 19.9622 28.6004H20.9141C23.3926 28.6004 25.3437 28.6004 26.9155 28.4415C28.5255 28.2787 29.8501 27.9408 31.0422 27.1944C31.6077 26.8404 32.133 26.4261 32.6091 25.9587C33.6128 24.9734 34.2501 23.764 34.7836 22.2363C35.3045 20.7449 35.7593 18.8475 36.3369 16.4373L36.3704 16.2973C36.7188 14.8441 37.0059 13.6463 37.1168 12.6759C37.2319 11.6689 37.1849 10.71 36.6822 9.83442C36.4672 9.45995 36.1984 9.11907 35.8843 8.8227C35.1501 8.12977 34.2285 7.8606 33.2223 7.73782C32.2529 7.61953 31.0212 7.61956 29.5267 7.61959L4.09212 7.61959L2.63135 1.77653ZM5.87647 15.0251L4.6783 10.0258H29.4487C31.0408 10.0258 32.1245 10.028 32.9309 10.1264C33.7174 10.2223 34.0399 10.3907 34.2328 10.5727C34.3756 10.7074 34.4978 10.8624 34.5955 11.0326C34.7276 11.2626 34.8161 11.6154 34.7261 12.4027C34.6339 13.2098 34.3833 14.2641 34.0123 15.8124C33.4159 18.3007 32.9881 20.0796 32.5119 21.4429C32.0438 22.7832 31.5638 23.613 30.9234 24.2416C30.5715 24.587 30.1832 24.8933 29.7653 25.155C29.0047 25.6312 28.0859 25.9046 26.6734 26.0474C25.2367 26.1927 23.407 26.1942 20.8483 26.1942H20.0387C17.0809 26.1942 14.9656 26.1923 13.3187 26.0009C11.7022 25.813 10.6687 25.4543 9.83206 24.825C9.74883 24.7624 9.66704 24.6979 9.58675 24.6315C8.77982 23.9646 8.19012 23.0432 7.63067 21.515C7.06068 19.958 6.56585 17.9015 5.87647 15.0251Z" fill="white"/>
<path d="M16.6615 32.4631C16.6615 33.3957 15.9055 34.1517 14.9729 34.1517C14.0403 34.1517 13.2843 33.3957 13.2843 32.4631C13.2843 31.5305 14.0403 30.7745 14.9729 30.7745C15.9055 30.7745 16.6615 31.5305 16.6615 32.4631Z" fill="white"/>
<path d="M26.7931 32.4631C26.7931 33.3957 26.0371 34.1517 25.1045 34.1517C24.1719 34.1517 23.4159 33.3957 23.4159 32.4631C23.4159 31.5305 24.1719 30.7745 25.1045 30.7745C26.0371 30.7745 26.7931 31.5305 26.7931 32.4631Z" fill="white"/>
</g>
</g>
</svg>
