<svg width="37" height="37" viewBox="0 0 37 37" fill="none" xmlns="http://www.w3.org/2000/svg">
<path fill-rule="evenodd" clip-rule="evenodd" d="M0.583168 18.4998C0.583168 8.60474 8.60473 0.583173 18.4998 0.583172C28.3949 0.583172 36.4165 8.60473 36.4165 18.4998C36.4165 28.3949 28.3949 36.4165 18.4998 36.4165C8.60473 36.4165 0.583169 28.3949 0.583168 18.4998ZM21.1372 8.5871C21.6643 8.06468 22.5152 8.06848 23.0376 8.59558C23.56 9.12268 23.5562 9.97349 23.0291 10.4959L19.8704 13.6265C18.5885 14.897 17.7092 15.7714 17.1141 16.5124C16.5362 17.2321 16.3379 17.6943 16.2851 18.1084C16.252 18.3683 16.252 18.6314 16.2851 18.8913C16.3379 19.3053 16.5362 19.7676 17.1141 20.4873C17.7092 21.2282 18.5885 22.1026 19.8704 23.3732L23.0291 26.5038C23.5562 27.0262 23.56 27.877 23.0376 28.4041C22.5152 28.9312 21.6643 28.935 21.1372 28.4126L17.9217 25.2256C16.7106 24.0253 15.7207 23.0442 15.0187 22.1701C14.2888 21.2612 13.7603 20.3386 13.6192 19.2311C13.5573 18.7455 13.5573 18.2541 13.6192 17.7685C13.7603 16.6611 14.2888 15.7385 15.0187 14.8295C15.7207 13.9554 16.7106 12.9744 17.9217 11.7741L21.1372 8.5871Z" fill="#E6783F" fill-opacity="0.69"/>
</svg>
