<svg width="43" height="43" viewBox="0 0 43 43" fill="none" xmlns="http://www.w3.org/2000/svg">
<path fill-rule="evenodd" clip-rule="evenodd" d="M39.4168 21.4998C39.4168 11.6047 31.3953 3.58317 21.5002 3.58317C11.6051 3.58317 3.5835 11.6047 3.5835 21.4998C3.5835 31.3949 11.6051 39.4165 21.5002 39.4165C31.3953 39.4165 39.4168 31.3949 39.4168 21.4998ZM18.8628 11.5871C18.3357 11.0647 17.4848 11.0685 16.9624 11.5956C16.44 12.1227 16.4438 12.9735 16.9709 13.4959L20.1296 16.6265C21.4115 17.897 22.2908 18.7714 22.8859 19.5124C23.4638 20.2321 23.6621 20.6943 23.7149 21.1084C23.748 21.3683 23.748 21.6314 23.7149 21.8913C23.6621 22.3053 23.4638 22.7676 22.8859 23.4873C22.2908 24.2282 21.4115 25.1026 20.1296 26.3732L16.9709 29.5038C16.4438 30.0262 16.44 30.877 16.9624 31.4041C17.4848 31.9312 18.3357 31.935 18.8628 31.4126L22.0783 28.2256C23.2894 27.0253 24.2793 26.0442 24.9813 25.1701C25.7112 24.2612 26.2397 23.3386 26.3808 22.2311C26.4427 21.7455 26.4427 21.2541 26.3808 20.7685C26.2397 19.6611 25.7112 18.7385 24.9813 17.8295C24.2793 16.9554 23.2894 15.9744 22.0783 14.7741L18.8628 11.5871Z" fill="#E6783F" fill-opacity="0.69"/>
</svg>
