<svg width="22" height="20" viewBox="0 0 22 20" fill="none" xmlns="http://www.w3.org/2000/svg">
<g id="Buy 3">
<g id="Vector">
<path d="M9.69791 11.6098C9.32685 11.6098 9.02604 11.9106 9.02604 12.2817C9.02604 12.6527 9.32685 12.9535 9.69791 12.9535H15.0729C15.444 12.9535 15.7448 12.6527 15.7448 12.2817C15.7448 11.9106 15.444 11.6098 15.0729 11.6098H9.69791Z" fill="#202221"/>
<path fill-rule="evenodd" clip-rule="evenodd" d="M2.28723 1.36871C2.19723 1.00873 1.83245 0.789857 1.47246 0.879854C1.11247 0.969851 0.893602 1.33463 0.983598 1.69462L1.92579 5.46337L2.80264 9.12195C3.17548 10.6776 3.46895 11.9022 3.8172 12.8534C4.17443 13.8292 4.61249 14.5868 5.31534 15.1677C5.37599 15.2178 5.43779 15.2665 5.50068 15.3138C6.2294 15.8619 7.06818 16.1114 8.10036 16.2313C9.10659 16.3483 10.3658 16.3483 11.9655 16.3483H12.4971C13.8812 16.3483 14.9708 16.3483 15.8485 16.2595C16.7476 16.1686 17.4873 15.9799 18.153 15.5631C18.4688 15.3654 18.7622 15.134 19.0281 14.873C19.5885 14.3228 19.9444 13.6474 20.2424 12.7943C20.5333 11.9614 20.7872 10.9019 21.1098 9.55589L21.1285 9.47772C21.3231 8.66616 21.4834 7.99728 21.5453 7.4554C21.6096 6.893 21.5834 6.35751 21.3026 5.86857C21.1826 5.65945 21.0324 5.4691 20.8571 5.30359C20.447 4.91663 19.9324 4.76631 19.3705 4.69775C18.8291 4.63169 18.1413 4.6317 17.3067 4.63172L3.10298 4.63172L2.28723 1.36871ZM4.09943 8.76726L3.43033 5.97547H17.2631C18.1522 5.97547 18.7574 5.97666 19.2077 6.03161C19.647 6.0852 19.8271 6.1792 19.9348 6.28087C20.0145 6.3561 20.0827 6.44262 20.1373 6.53768C20.2111 6.66614 20.2605 6.86318 20.2103 7.3028C20.1588 7.75352 20.0189 8.34231 19.8116 9.20693C19.4786 10.5965 19.2397 11.5899 18.9738 12.3512C18.7124 13.0997 18.4443 13.5631 18.0867 13.9141C17.8902 14.107 17.6733 14.2781 17.4399 14.4242C17.0152 14.6901 16.5021 14.8428 15.7133 14.9226C14.911 15.0037 13.8892 15.0045 12.4603 15.0045H12.0082C10.3564 15.0045 9.17521 15.0035 8.25549 14.8966C7.35276 14.7917 6.77561 14.5914 6.3084 14.2399C6.26192 14.205 6.21624 14.169 6.17141 14.1319C5.72078 13.7595 5.39147 13.2449 5.07905 12.3915C4.76074 11.522 4.48441 10.3736 4.09943 8.76726Z" fill="#202221"/>
<path d="M10.1222 18.5054C10.1222 19.0261 9.70006 19.4483 9.17927 19.4483C8.65847 19.4483 8.23628 19.0261 8.23628 18.5054C8.23628 17.9846 8.65847 17.5624 9.17927 17.5624C9.70006 17.5624 10.1222 17.9846 10.1222 18.5054Z" fill="#202221"/>
<path d="M15.7801 18.5054C15.7801 19.0261 15.358 19.4483 14.8372 19.4483C14.3164 19.4483 13.8942 19.0261 13.8942 18.5054C13.8942 17.9846 14.3164 17.5624 14.8372 17.5624C15.358 17.5624 15.7801 17.9846 15.7801 18.5054Z" fill="#202221"/>
</g>
</g>
</svg>
