<svg width="37" height="37" viewBox="0 0 37 37" fill="none" xmlns="http://www.w3.org/2000/svg">
<rect width="36.98" height="36.98" rx="5" fill="#202221" fill-opacity="0.13"/>
<g clip-path="url(#clip0_44_61)">
<path d="M16.6979 19.6098C16.3268 19.6098 16.026 19.9106 16.026 20.2817C16.026 20.6527 16.3268 20.9535 16.6979 20.9535H22.0729C22.444 20.9535 22.7448 20.6527 22.7448 20.2817C22.7448 19.9106 22.444 19.6098 22.0729 19.6098H16.6979Z" fill="#202221"/>
<path fill-rule="evenodd" clip-rule="evenodd" d="M9.28723 9.36871C9.19723 9.00873 8.83245 8.78986 8.47246 8.87985C8.11247 8.96985 7.8936 9.33463 7.9836 9.69462L8.92579 13.4634L9.80264 17.122C10.1755 18.6776 10.4689 19.9022 10.8172 20.8534C11.1744 21.8292 11.6125 22.5868 12.3153 23.1677C12.376 23.2178 12.4378 23.2665 12.5007 23.3138C13.2294 23.8619 14.0682 24.1114 15.1004 24.2313C16.1066 24.3483 17.3658 24.3483 18.9655 24.3483H19.4971C20.8812 24.3483 21.9708 24.3483 22.8485 24.2595C23.7476 24.1686 24.4873 23.9799 25.153 23.5631C25.4688 23.3654 25.7622 23.134 26.0281 22.873C26.5885 22.3228 26.9444 21.6474 27.2424 20.7943C27.5333 19.9614 27.7872 18.9019 28.1098 17.5559L28.1285 17.4777C28.3231 16.6662 28.4834 15.9973 28.5453 15.4554C28.6096 14.893 28.5834 14.3575 28.3026 13.8686C28.1826 13.6595 28.0324 13.4691 27.8571 13.3036C27.447 12.9166 26.9324 12.7663 26.3705 12.6977C25.8291 12.6317 25.1413 12.6317 24.3067 12.6317L10.103 12.6317L9.28723 9.36871ZM11.0994 16.7673L10.4303 13.9755H24.2631C25.1522 13.9755 25.7574 13.9767 26.2077 14.0316C26.647 14.0852 26.8271 14.1792 26.9348 14.2809C27.0145 14.3561 27.0827 14.4426 27.1373 14.5377C27.2111 14.6661 27.2605 14.8632 27.2103 15.3028C27.1588 15.7535 27.0189 16.3423 26.8116 17.2069C26.4786 18.5965 26.2397 19.5899 25.9738 20.3512C25.7124 21.0997 25.4443 21.5631 25.0867 21.9141C24.8902 22.107 24.6733 22.2781 24.4399 22.4242C24.0152 22.6901 23.5021 22.8428 22.7133 22.9226C21.911 23.0037 20.8892 23.0045 19.4603 23.0045H19.0082C17.3564 23.0045 16.1752 23.0035 15.2555 22.8966C14.3528 22.7917 13.7756 22.5914 13.3084 22.2399C13.2619 22.205 13.2162 22.169 13.1714 22.1319C12.7208 21.7595 12.3915 21.2449 12.0791 20.3915C11.7607 19.522 11.4844 18.3736 11.0994 16.7673Z" fill="#202221"/>
<path d="M17.1222 26.5054C17.1222 27.0261 16.7001 27.4483 16.1793 27.4483C15.6585 27.4483 15.2363 27.0261 15.2363 26.5054C15.2363 25.9846 15.6585 25.5624 16.1793 25.5624C16.7001 25.5624 17.1222 25.9846 17.1222 26.5054Z" fill="#202221"/>
<path d="M22.7801 26.5054C22.7801 27.0261 22.358 27.4483 21.8372 27.4483C21.3164 27.4483 20.8942 27.0261 20.8942 26.5054C20.8942 25.9846 21.3164 25.5624 21.8372 25.5624C22.358 25.5624 22.7801 25.9846 22.7801 26.5054Z" fill="#202221"/>
</g>
<defs>
<clipPath id="clip0_44_61">
<rect width="21.5" height="21.5" fill="white" transform="translate(7.73975 7.74001)"/>
</clipPath>
</defs>
</svg>
