<svg width="297" height="113" viewBox="0 0 297 113" fill="none" xmlns="http://www.w3.org/2000/svg">
<rect x="1" y="1" width="295" height="111" rx="14" fill="white" stroke="#DCDDDF" stroke-width="2"/>
<path d="M107 16L113.062 34.6565H132.679L116.808 46.1869L122.87 64.8435L107 53.3131L91.1298 64.8435L97.1917 46.1869L81.3215 34.6565H100.938L107 16Z" fill="#FFF06B"/>
<rect x="68" y="14" width="31" height="57" fill="white"/>
<path d="M91 67H87.3793V49.2475H81.7992L74.0892 67H70L78.2637 48.2233C76.503 47.0854 75.0832 45.3556 74.0041 43.0341C72.9249 40.6671 72.3854 37.936 72.3854 34.8407C72.3854 30.2432 73.3651 26.4651 75.3245 23.5064C77.284 20.5021 80.1805 19 84.0142 19C84.1278 19 85.3205 19.0455 87.5923 19.1366C88.7282 19.1821 89.8641 19.2048 91 19.2048V67ZM81.3732 43.7852H87.3793V24.6671C85.4199 24.5306 84.071 24.4623 83.3327 24.4623C81.1176 24.4623 79.3712 25.3954 78.0933 27.2617C76.8438 29.0825 76.2191 31.495 76.2191 34.4993C76.2191 36.9573 76.7302 39.0284 77.7525 40.7127C78.7748 42.4424 79.9817 43.4666 81.3732 43.7852Z" fill="#E00404"/>
<path d="M148.916 45.7104L151.189 27.3939H167.546V33.0563H156.18L155.192 39.9004C155.85 39.769 156.509 39.7034 157.168 39.7034C160.331 39.7034 162.917 40.7046 164.927 42.7069C167.002 44.7093 168.04 47.3681 168.04 50.6835C168.04 54.2614 166.903 57.1172 164.63 59.2509C162.39 61.3517 159.557 62.4021 156.131 62.4021C154.253 62.4021 152.325 61.9754 150.349 61.1219C148.504 60.2685 147.054 59.0539 146 57.4783L149.262 53.1946C149.953 54.245 150.958 55.0985 152.276 55.755C153.627 56.4115 154.961 56.7397 156.279 56.7397C157.926 56.7397 159.277 56.1981 160.331 55.1149C161.418 54.0317 161.962 52.6366 161.962 50.9297C161.962 49.1243 161.286 47.6635 159.936 46.5475C158.618 45.3986 156.839 44.8242 154.599 44.8242C152.194 44.8242 150.299 45.1196 148.916 45.7104Z" fill="#100B0F"/>
<path d="M172.62 58.7093C172.62 57.626 172.949 56.7562 173.608 56.0996C174.3 55.4431 175.239 55.1149 176.425 55.1149C177.71 55.1149 178.747 55.6401 179.538 56.6905C180.362 57.7081 180.773 59.0211 180.773 60.6295C180.773 62.6975 180.213 64.4701 179.093 65.9472C178.006 67.4244 176.474 68.442 174.497 69L172.966 66.3412C174.448 65.7831 175.453 64.9132 175.98 63.7315C176.474 62.714 176.622 61.959 176.425 61.4666C176.227 61.7292 175.799 61.8605 175.14 61.8605C174.448 61.8605 173.855 61.5651 173.361 60.9742C172.867 60.3505 172.62 59.5955 172.62 58.7093Z" fill="#100B0F"/>
<path d="M196.436 27C200.291 27 203.174 28.5756 205.084 31.7268C207.028 34.9109 208 39.211 208 44.6272C208 50.2075 207.028 54.5404 205.084 57.626C203.141 60.7116 200.291 62.2544 196.535 62.2544C192.747 62.2544 189.847 60.6952 187.838 57.5768C185.828 54.4584 184.823 50.1419 184.823 44.6272C184.823 39.0797 185.812 34.7632 187.788 31.6776C189.765 28.5592 192.648 27 196.436 27ZM190.902 44.6272C190.902 52.8664 192.78 56.9859 196.535 56.9859C198.479 56.9859 199.863 56.0176 200.686 54.0809C201.543 52.1442 201.971 48.993 201.971 44.6272C201.971 40.2943 201.543 37.1594 200.686 35.2227C199.83 33.286 198.413 32.3177 196.436 32.3177C194.493 32.3177 193.076 33.3189 192.187 35.3212C191.33 37.2907 190.902 40.3927 190.902 44.6272Z" fill="#100B0F"/>
<path d="M221.5 44L212.5 65.5" stroke="#D9D9D9" stroke-linecap="round"/>
<path d="M222.485 55.78L223.145 50.5H227.885V51.7H224.195L223.805 54.535C224.045 54.465 224.325 54.43 224.645 54.43C225.615 54.43 226.41 54.73 227.03 55.33C227.65 55.92 227.96 56.705 227.96 57.685C227.96 58.735 227.63 59.575 226.97 60.205C226.31 60.835 225.5 61.15 224.54 61.15C223.92 61.15 223.335 61.01 222.785 60.73C222.235 60.45 221.815 60.06 221.525 59.56L222.215 58.675C222.455 59.065 222.79 59.375 223.22 59.605C223.66 59.835 224.11 59.95 224.57 59.95C225.17 59.95 225.67 59.74 226.07 59.32C226.48 58.89 226.685 58.36 226.685 57.73C226.685 57.09 226.45 56.56 225.98 56.14C225.52 55.72 224.905 55.51 224.135 55.51C223.505 55.51 222.955 55.6 222.485 55.78Z" fill="#DCDDDF"/>
<path d="M76.5312 83.6406L75.625 84.3359C75.125 83.6849 74.5234 83.1927 73.8203 82.8594C73.1224 82.5208 72.3542 82.3516 71.5156 82.3516C70.599 82.3516 69.75 82.5729 68.9688 83.0156C68.1875 83.4531 67.5807 84.0443 67.1484 84.7891C66.7214 85.5286 66.5078 86.362 66.5078 87.2891C66.5078 88.6901 66.987 89.8594 67.9453 90.7969C68.9089 91.7344 70.1224 92.2031 71.5859 92.2031C73.1953 92.2031 74.5417 91.5729 75.625 90.3125L76.5312 91C75.9583 91.7292 75.2422 92.2943 74.3828 92.6953C73.5286 93.0911 72.5729 93.2891 71.5156 93.2891C69.5052 93.2891 67.9193 92.6198 66.7578 91.2812C65.7839 90.151 65.2969 88.7865 65.2969 87.1875C65.2969 85.5052 65.8854 84.0911 67.0625 82.9453C68.2448 81.7943 69.724 81.2188 71.5 81.2188C72.5729 81.2188 73.5417 81.4323 74.4062 81.8594C75.2708 82.2812 75.9792 82.875 76.5312 83.6406ZM87.8906 84.5H88.2031L91.0859 93H89.9453L87.8438 86.7422L84.5781 93H84.375L81.1016 86.7422L79.0078 93H77.8672L80.7656 84.5H81.0625L84.4844 91.1484L87.8906 84.5ZM96.75 84.2812C98.0573 84.2812 99.1406 84.7552 100 85.7031C100.781 86.5677 101.172 87.5911 101.172 88.7734C101.172 89.9609 100.758 91 99.9297 91.8906C99.1068 92.776 98.0469 93.2188 96.75 93.2188C95.4479 93.2188 94.3828 92.776 93.5547 91.8906C92.7318 91 92.3203 89.9609 92.3203 88.7734C92.3203 87.5964 92.7109 86.5755 93.4922 85.7109C94.3516 84.7578 95.4375 84.2812 96.75 84.2812ZM96.75 85.3516C95.8438 85.3516 95.0651 85.6875 94.4141 86.3594C93.763 87.0312 93.4375 87.8438 93.4375 88.7969C93.4375 89.4115 93.5859 89.9844 93.8828 90.5156C94.1797 91.0469 94.5807 91.4583 95.0859 91.75C95.5911 92.0365 96.1458 92.1797 96.75 92.1797C97.3542 92.1797 97.9089 92.0365 98.4141 91.75C98.9193 91.4583 99.3203 91.0469 99.6172 90.5156C99.9141 89.9844 100.062 89.4115 100.062 88.7969C100.062 87.8438 99.7344 87.0312 99.0781 86.3594C98.4271 85.6875 97.651 85.3516 96.75 85.3516ZM102.258 84.5H107.852V85.4453H105.602V93H104.5V85.4453H102.258V84.5ZM109.352 84.5H110.438V86.0625C110.87 85.4688 111.367 85.0234 111.93 84.7266C112.492 84.4297 113.12 84.2812 113.812 84.2812C115.021 84.2812 116.055 84.7161 116.914 85.5859C117.773 86.4557 118.203 87.5026 118.203 88.7266C118.203 89.9766 117.776 91.0391 116.922 91.9141C116.073 92.7839 115.047 93.2188 113.844 93.2188C113.167 93.2188 112.544 93.0781 111.977 92.7969C111.409 92.5156 110.896 92.0964 110.438 91.5391V96.1094H109.352V84.5ZM113.727 85.3359C112.779 85.3359 111.979 85.6667 111.328 86.3281C110.682 86.9896 110.359 87.8125 110.359 88.7969C110.359 89.4427 110.503 90.0234 110.789 90.5391C111.081 91.0547 111.495 91.4635 112.031 91.7656C112.573 92.0677 113.143 92.2188 113.742 92.2188C114.331 92.2188 114.883 92.0677 115.398 91.7656C115.919 91.4583 116.333 91.0312 116.641 90.4844C116.948 89.9375 117.102 89.3646 117.102 88.7656C117.102 88.1615 116.948 87.5885 116.641 87.0469C116.339 86.5052 115.93 86.0859 115.414 85.7891C114.898 85.487 114.336 85.3359 113.727 85.3359ZM127.414 90.1797L128.336 90.6641C128.034 91.2578 127.685 91.737 127.289 92.1016C126.893 92.4661 126.448 92.7448 125.953 92.9375C125.458 93.125 124.898 93.2188 124.273 93.2188C122.888 93.2188 121.805 92.7656 121.023 91.8594C120.242 90.9479 119.852 89.9193 119.852 88.7734C119.852 87.6953 120.182 86.7344 120.844 85.8906C121.682 84.8177 122.805 84.2812 124.211 84.2812C125.659 84.2812 126.815 84.8307 127.68 85.9297C128.294 86.7057 128.607 87.6745 128.617 88.8359H120.977C120.997 89.8255 121.312 90.638 121.922 91.2734C122.531 91.9036 123.284 92.2188 124.18 92.2188C124.612 92.2188 125.031 92.1432 125.438 91.9922C125.849 91.8411 126.198 91.6406 126.484 91.3906C126.771 91.1406 127.081 90.737 127.414 90.1797ZM127.414 87.8906C127.268 87.3073 127.055 86.8411 126.773 86.4922C126.497 86.1432 126.13 85.862 125.672 85.6484C125.214 85.4349 124.732 85.3281 124.227 85.3281C123.393 85.3281 122.677 85.5964 122.078 86.1328C121.641 86.5234 121.31 87.1094 121.086 87.8906H127.414ZM129.711 84.5H135.305V85.4453H133.055V93H131.953V85.4453H129.711V84.5ZM137.875 87.8672H138.914C139.742 87.8672 140.391 87.9323 140.859 88.0625C141.328 88.1927 141.732 88.4818 142.07 88.9297C142.409 89.3724 142.578 89.8828 142.578 90.4609C142.578 91.1589 142.333 91.7578 141.844 92.2578C141.354 92.7526 140.612 93 139.617 93H136.789V84.5H137.875V87.8672ZM137.914 88.8672V92.0781H139.172C140.651 92.0781 141.391 91.5573 141.391 90.5156C141.391 90.2188 141.31 89.9271 141.148 89.6406C140.992 89.3542 140.76 89.1536 140.453 89.0391C140.151 88.9245 139.615 88.8672 138.844 88.8672H137.914ZM151.242 93H148.773V84.5H151.203C152.13 84.5 152.797 84.7135 153.203 85.1406C153.615 85.5677 153.82 86.0677 153.82 86.6406C153.82 87.5052 153.44 88.0911 152.68 88.3984C153.784 88.7891 154.336 89.5417 154.336 90.6562C154.336 92.2188 153.305 93 151.242 93ZM149.875 85.4453V88.1016H150.586C151.232 88.1016 151.654 88.0755 151.852 88.0234C152.049 87.9714 152.234 87.8438 152.406 87.6406C152.583 87.4323 152.672 87.1589 152.672 86.8203C152.672 86.4661 152.581 86.1693 152.398 85.9297C152.216 85.6901 152.023 85.5495 151.82 85.5078C151.622 85.4661 151.211 85.4453 150.586 85.4453H149.875ZM149.875 89.1016V92.0781H151.047C151.599 92.0781 151.992 92.0443 152.227 91.9766C152.466 91.9036 152.669 91.75 152.836 91.5156C153.008 91.2812 153.094 90.9844 153.094 90.625C153.094 90.1615 152.948 89.7917 152.656 89.5156C152.365 89.2396 151.979 89.1016 151.5 89.1016H149.875ZM164.508 86.2656L163.641 86.8047C162.891 85.8099 161.867 85.3125 160.57 85.3125C159.534 85.3125 158.672 85.6458 157.984 86.3125C157.302 86.9792 156.961 87.7891 156.961 88.7422C156.961 89.362 157.117 89.9453 157.43 90.4922C157.747 91.0391 158.18 91.4635 158.727 91.7656C159.279 92.0677 159.896 92.2188 160.578 92.2188C161.828 92.2188 162.849 91.7214 163.641 90.7266L164.508 91.2969C164.102 91.9062 163.555 92.3802 162.867 92.7188C162.185 93.0521 161.406 93.2188 160.531 93.2188C159.188 93.2188 158.073 92.7917 157.188 91.9375C156.302 91.0833 155.859 90.0443 155.859 88.8203C155.859 87.9974 156.065 87.2344 156.477 86.5312C156.893 85.8229 157.464 85.2708 158.188 84.875C158.911 84.4792 159.721 84.2812 160.617 84.2812C161.18 84.2812 161.721 84.3672 162.242 84.5391C162.768 84.7109 163.214 84.9349 163.578 85.2109C163.943 85.487 164.253 85.8385 164.508 86.2656ZM173.773 90.1797L174.695 90.6641C174.393 91.2578 174.044 91.737 173.648 92.1016C173.253 92.4661 172.807 92.7448 172.312 92.9375C171.818 93.125 171.258 93.2188 170.633 93.2188C169.247 93.2188 168.164 92.7656 167.383 91.8594C166.602 90.9479 166.211 89.9193 166.211 88.7734C166.211 87.6953 166.542 86.7344 167.203 85.8906C168.042 84.8177 169.164 84.2812 170.57 84.2812C172.018 84.2812 173.174 84.8307 174.039 85.9297C174.654 86.7057 174.966 87.6745 174.977 88.8359H167.336C167.357 89.8255 167.672 90.638 168.281 91.2734C168.891 91.9036 169.643 92.2188 170.539 92.2188C170.971 92.2188 171.391 92.1432 171.797 91.9922C172.208 91.8411 172.557 91.6406 172.844 91.3906C173.13 91.1406 173.44 90.737 173.773 90.1797ZM173.773 87.8906C173.628 87.3073 173.414 86.8411 173.133 86.4922C172.857 86.1432 172.49 85.862 172.031 85.6484C171.573 85.4349 171.091 85.3281 170.586 85.3281C169.753 85.3281 169.036 85.5964 168.438 86.1328C168 86.5234 167.669 87.1094 167.445 87.8906H173.773ZM185.484 84.2812C186.792 84.2812 187.875 84.7552 188.734 85.7031C189.516 86.5677 189.906 87.5911 189.906 88.7734C189.906 89.9609 189.492 91 188.664 91.8906C187.841 92.776 186.781 93.2188 185.484 93.2188C184.182 93.2188 183.117 92.776 182.289 91.8906C181.466 91 181.055 89.9609 181.055 88.7734C181.055 87.5964 181.445 86.5755 182.227 85.7109C183.086 84.7578 184.172 84.2812 185.484 84.2812ZM185.484 85.3516C184.578 85.3516 183.799 85.6875 183.148 86.3594C182.497 87.0312 182.172 87.8438 182.172 88.7969C182.172 89.4115 182.32 89.9844 182.617 90.5156C182.914 91.0469 183.315 91.4583 183.82 91.75C184.326 92.0365 184.88 92.1797 185.484 92.1797C186.089 92.1797 186.643 92.0365 187.148 91.75C187.654 91.4583 188.055 91.0469 188.352 90.5156C188.648 89.9844 188.797 89.4115 188.797 88.7969C188.797 87.8438 188.469 87.0312 187.812 86.3594C187.161 85.6875 186.385 85.3516 185.484 85.3516ZM190.992 84.5H196.586V85.4453H194.336V93H193.234V85.4453H190.992V84.5ZM199.492 88.0781H200.062C200.427 88.0781 200.76 87.9583 201.062 87.7188C201.37 87.4792 201.523 87.1354 201.523 86.6875C201.523 86.3073 201.401 85.9818 201.156 85.7109C200.911 85.4349 200.536 85.2969 200.031 85.2969C199.443 85.2969 198.852 85.526 198.258 85.9844L197.641 85.2266C198.406 84.5859 199.219 84.2656 200.078 84.2656C200.786 84.2656 201.38 84.4766 201.859 84.8984C202.339 85.3203 202.578 85.8646 202.578 86.5312C202.578 87.4167 202.188 88.0182 201.406 88.3359C202.427 88.763 202.938 89.5104 202.938 90.5781C202.938 91.2552 202.698 91.8672 202.219 92.4141C201.745 92.9557 201.034 93.2266 200.086 93.2266C198.924 93.2266 197.99 92.849 197.281 92.0938L197.969 91.3125C198.495 91.9062 199.169 92.2031 199.992 92.2031C200.544 92.2031 200.977 92.0547 201.289 91.7578C201.607 91.4609 201.766 91.0703 201.766 90.5859C201.766 90.112 201.607 89.7318 201.289 89.4453C200.971 89.1589 200.596 89.0156 200.164 89.0156H199.492V88.0781ZM205.922 87.8672H206.961C207.789 87.8672 208.438 87.9323 208.906 88.0625C209.375 88.1927 209.779 88.4818 210.117 88.9297C210.456 89.3724 210.625 89.8828 210.625 90.4609C210.625 91.1589 210.38 91.7578 209.891 92.2578C209.401 92.7526 208.659 93 207.664 93H204.836V84.5H205.922V87.8672ZM205.961 88.8672V92.0781H207.219C208.698 92.0781 209.438 91.5573 209.438 90.5156C209.438 90.2188 209.357 89.9271 209.195 89.6406C209.039 89.3542 208.807 89.1536 208.5 89.0391C208.198 88.9245 207.661 88.8672 206.891 88.8672H205.961ZM212.133 84.5H213.234V93H212.133V84.5ZM218.039 93H215.57V84.5H218C218.927 84.5 219.594 84.7135 220 85.1406C220.411 85.5677 220.617 86.0677 220.617 86.6406C220.617 87.5052 220.237 88.0911 219.477 88.3984C220.581 88.7891 221.133 89.5417 221.133 90.6562C221.133 92.2188 220.102 93 218.039 93ZM216.672 85.4453V88.1016H217.383C218.029 88.1016 218.451 88.0755 218.648 88.0234C218.846 87.9714 219.031 87.8438 219.203 87.6406C219.38 87.4323 219.469 87.1589 219.469 86.8203C219.469 86.4661 219.378 86.1693 219.195 85.9297C219.013 85.6901 218.82 85.5495 218.617 85.5078C218.419 85.4661 218.008 85.4453 217.383 85.4453H216.672ZM216.672 89.1016V92.0781H217.844C218.396 92.0781 218.789 92.0443 219.023 91.9766C219.263 91.9036 219.466 91.75 219.633 91.5156C219.805 91.2812 219.891 90.9844 219.891 90.625C219.891 90.1615 219.745 89.7917 219.453 89.5156C219.161 89.2396 218.776 89.1016 218.297 89.1016H216.672ZM224.141 87.8672H225.18C226.008 87.8672 226.656 87.9323 227.125 88.0625C227.594 88.1927 227.997 88.4818 228.336 88.9297C228.674 89.3724 228.844 89.8828 228.844 90.4609C228.844 91.1589 228.599 91.7578 228.109 92.2578C227.62 92.7526 226.878 93 225.883 93H223.055V84.5H224.141V87.8672ZM224.18 88.8672V92.0781H225.438C226.917 92.0781 227.656 91.5573 227.656 90.5156C227.656 90.2188 227.576 89.9271 227.414 89.6406C227.258 89.3542 227.026 89.1536 226.719 89.0391C226.417 88.9245 225.88 88.8672 225.109 88.8672H224.18ZM230.352 84.5H231.453V93H230.352V84.5Z" fill="#808281"/>
<path d="M64.4297 95H232.57V95.9297H64.4297V95Z" fill="#808281"/>
</svg>
