<svg width="47" height="47" viewBox="0 0 47 47" fill="none" xmlns="http://www.w3.org/2000/svg">
<g id="Right Circle 2">
<path id="Vector" fill-rule="evenodd" clip-rule="evenodd" d="M0.583339 23.5003C0.583338 10.8438 10.8435 0.583665 23.5 0.583665C36.1565 0.583664 46.4167 10.8438 46.4167 23.5003C46.4167 36.1569 36.1565 46.417 23.5 46.417C10.8435 46.417 0.583339 36.1569 0.583339 23.5003ZM26.8734 10.8212C27.5476 10.153 28.6359 10.1579 29.3041 10.8321C29.9723 11.5063 29.9674 12.5945 29.2932 13.2627L25.2531 17.267C23.6134 18.8921 22.4887 20.0105 21.7276 20.9582C20.9883 21.8787 20.7347 22.47 20.6672 22.9996C20.6248 23.3321 20.6248 23.6686 20.6672 24.0011C20.7347 24.5306 20.9883 25.1219 21.7276 26.0425C22.4887 26.9901 23.6134 28.1086 25.2531 29.7337L29.2932 33.7379C29.9674 34.4061 29.9723 35.4944 29.3041 36.1686C28.6359 36.8428 27.5476 36.8476 26.8734 36.1794L22.7605 32.103C21.2114 30.5677 19.9453 29.3129 19.0474 28.1949C18.1137 27.0323 17.4378 25.8522 17.2573 24.4357C17.1781 23.8146 17.1781 23.1861 17.2573 22.565C17.4378 21.1484 18.1137 19.9684 19.0474 18.8058C19.9453 17.6877 21.2114 16.4329 22.7605 14.8977L26.8734 10.8212Z" fill="#E6783F" fill-opacity="0.69"/>
</g>
</svg>
