<svg width="47" height="47" viewBox="0 0 47 47" fill="none" xmlns="http://www.w3.org/2000/svg">
<g id="Right Circle 2">
<path id="Vector" fill-rule="evenodd" clip-rule="evenodd" d="M46.4167 23.5003C46.4167 10.8438 36.1566 0.583665 23.5 0.583665C10.8435 0.583664 0.583376 10.8438 0.583375 23.5003C0.583374 36.1569 10.8435 46.417 23.5 46.417C36.1566 46.417 46.4167 36.1569 46.4167 23.5003ZM20.1266 10.8212C19.4524 10.153 18.3642 10.1579 17.696 10.8321C17.0277 11.5063 17.0326 12.5945 17.7068 13.2627L21.7469 17.267C23.3866 18.8921 24.5114 20.0105 25.2724 20.9582C26.0117 21.8787 26.2653 22.47 26.3328 22.9996C26.3752 23.3321 26.3752 23.6686 26.3328 24.0011C26.2653 24.5306 26.0117 25.1219 25.2724 26.0425C24.5114 26.9901 23.3866 28.1086 21.7469 29.7337L17.7068 33.7379C17.0326 34.4061 17.0277 35.4944 17.696 36.1686C18.3642 36.8428 19.4524 36.8476 20.1266 36.1794L24.2396 32.103C25.7887 30.5677 27.0547 29.3129 27.9526 28.1949C28.8863 27.0323 29.5622 25.8522 29.7427 24.4357C29.8219 23.8146 29.8219 23.1861 29.7427 22.565C29.5622 21.1484 28.8863 19.9684 27.9526 18.8058C27.0547 17.6877 25.7887 16.4329 24.2396 14.8977L20.1266 10.8212Z" fill="#E6783F" fill-opacity="0.69"/>
</g>
</svg>
