<svg width="39" height="37" viewBox="0 0 39 37" fill="none" xmlns="http://www.w3.org/2000/svg">
<path d="M21.3306 1.83803L25.5052 10.2273C25.8128 10.8351 26.3998 11.2572 27.0768 11.351L36.4538 12.7167C37.0014 12.7936 37.4984 13.0825 37.8341 13.5233C38.1661 13.9586 38.3086 14.5101 38.2279 15.0522C38.1623 15.5025 37.9504 15.9189 37.6259 16.2378L30.8314 22.8243C30.3344 23.2839 30.1093 23.9649 30.2294 24.6309L31.9022 33.8906C32.0804 35.0086 31.3396 36.0629 30.2294 36.2749C29.7718 36.3481 29.3029 36.2712 28.8903 36.0611L20.526 31.7032C19.9053 31.3899 19.172 31.3899 18.5512 31.7032L10.1869 36.0611C9.1592 36.607 7.8858 36.2355 7.31381 35.2225C7.10189 34.8192 7.02687 34.3596 7.09626 33.9112L8.76912 24.6496C8.88914 23.9855 8.66222 23.3008 8.16711 22.8412L1.37253 16.2585C0.564233 15.4781 0.539853 14.1931 1.31814 13.3845C1.33502 13.3676 1.35378 13.3489 1.37253 13.3301C1.6951 13.0018 2.11894 12.7936 2.57654 12.7392L11.9536 11.3716C12.6287 11.2759 13.2157 10.8576 13.5251 10.2461L17.5498 1.83803C17.908 1.11766 18.6506 0.669307 19.457 0.688067H19.7083C20.4079 0.772485 21.0174 1.20583 21.3306 1.83803" fill="#EF6602"/>
</svg>
