<svg width="27" height="34" viewBox="0 0 27 34" fill="none" xmlns="http://www.w3.org/2000/svg">
<path fill-rule="evenodd" clip-rule="evenodd" d="M13.4997 9.11475C10.4794 9.11475 8.03092 11.5632 8.03092 14.5835C8.03092 17.6038 10.4794 20.0522 13.4997 20.0522C16.52 20.0522 18.9684 17.6038 18.9684 14.5835C18.9684 11.5632 16.52 9.11475 13.4997 9.11475ZM10.2184 14.5835C10.2184 12.7713 11.6875 11.3022 13.4997 11.3022C15.3119 11.3022 16.7809 12.7713 16.7809 14.5835C16.7809 16.3957 15.3119 17.8647 13.4997 17.8647C11.6875 17.8647 10.2184 16.3957 10.2184 14.5835Z" fill="#E6783F"/>
<path fill-rule="evenodd" clip-rule="evenodd" d="M13.4997 0.364746C6.37814 0.364746 0.739258 6.55212 0.739258 14.0128C0.739258 16.4056 1.92795 19.2231 3.42352 21.8672C4.9433 24.5541 6.88304 27.2363 8.58368 29.405L8.64041 29.4773C9.4705 30.536 10.1776 31.4378 10.8634 32.0607C11.6115 32.7403 12.4365 33.1852 13.4997 33.1852C14.5629 33.1852 15.3879 32.7403 16.136 32.0607C16.8217 31.4378 17.5289 30.536 18.359 29.4773L18.4157 29.405C20.1163 27.2363 22.056 24.5541 23.5758 21.8672C25.0714 19.2231 26.2601 16.4056 26.2601 14.0128C26.2601 6.55212 20.6212 0.364746 13.4997 0.364746ZM2.92676 14.0128C2.92676 7.60641 7.73456 2.55225 13.4997 2.55225C19.2648 2.55225 24.0726 7.60641 24.0726 14.0128C24.0726 15.8015 23.1398 18.1949 21.6718 20.7902C20.228 23.3427 18.3621 25.9284 16.6943 28.0551C15.7917 29.2062 15.1974 29.9581 14.6651 30.4415C14.1798 30.8824 13.8558 30.9977 13.4997 30.9977C13.1436 30.9977 12.8196 30.8824 12.3342 30.4415C11.802 29.9581 11.2077 29.2062 10.305 28.0551C8.63727 25.9284 6.77134 23.3427 5.32754 20.7902C3.85954 18.1949 2.92676 15.8015 2.92676 14.0128Z" fill="#E6783F"/>
</svg>
