<svg width="1920" height="824" viewBox="0 0 1920 824" fill="none" xmlns="http://www.w3.org/2000/svg">
<path d="M-3.05176e-05 823.859V26.5668C7.70633 29.9391 15.3681 28.317 22.9409 23.0665C34.1663 10.6022 45.3472 -3.31354 56.5281 31.8172C67.7536 29.3414 78.979 26.3107 90.4272 39.3727C104.726 45.5622 119.025 29.811 133.324 41.4216C147.624 35.4029 161.878 32.9697 176.133 36.598C183.26 35.1041 190.387 33.5674 197.648 32.1588C224.554 33.0552 249.544 16.5783 277.696 22.5544C296.45 28.5304 324.558 36.0432 344.871 34.5492C360.506 34.5492 379.26 37.5372 393.292 43.5132C396.41 43.5132 396.41 33.0551 401.087 31.5184C410.442 28.5304 413.56 37.4945 418.282 43.5132C421.4 39.0312 422.959 30.0245 430.754 33.0552C433.873 36.0432 438.55 39.0312 440.109 43.5132C458.907 31.5184 465.143 55.4654 482.338 56.9594C488.574 58.4534 491.693 47.9953 494.855 41.9766C507.372 25.4997 522.963 46.4586 536.639 51.3248C544.434 50.0443 552.274 50.3004 560.159 50.9406C567.999 51.5809 575.883 52.6481 583.723 53.075C599.448 54.6544 615.128 49.4893 630.674 49.3185C646.221 38.0494 661.633 44.5377 676.779 40.0983C684.352 39.33 691.88 40.6533 699.274 39.9703C710.455 38.9458 718.295 31.4757 726.091 23.963C729.209 22.4689 732.327 20.9749 735.49 22.4689C744.844 26.951 752.684 23.963 762.039 23.963C769.834 23.963 774.556 25.457 780.792 31.4331C788.588 35.9152 790.147 44.9219 797.987 49.4039C801.105 50.8979 805.782 46.416 810.504 47.91C821.418 50.8979 826.14 58.368 830.817 65.8808C843.334 55.38 857.366 64.3868 869.883 67.3748C873.001 67.3748 877.679 64.3868 879.282 61.3988C887.078 47.91 887.078 23.963 902.713 25.457C915.23 28.445 924.585 35.9578 941.022 34.4637C949.798 33.8235 958.573 32.5428 967.349 31.8599C984.9 23.4507 1002.45 24.8594 1019.96 30.5367C1037.51 30.1098 1055.06 11.4986 1072.57 29.1707C1090.12 14.5293 1107.67 26.951 1125.17 27.8047C1129.54 23.28 1133.95 22.1702 1138.31 22.7251C1142.68 23.28 1147.09 25.5424 1151.46 27.7194C1157.29 31.3904 1163.53 34.4211 1169.81 32.9271C1172.93 31.4331 1174.48 26.951 1177.6 26.951C1182.28 26.951 1186.96 31.4331 1191.68 31.4331C1258.85 22.469 1321.35 64.3868 1382.24 43.4279C1386.92 41.9339 1399.44 37.4518 1411.91 37.4518C1411.91 37.4518 1413.47 34.4638 1413.47 32.9698C1425.99 46.4586 1438.46 25.4997 1446.26 25.4997C1461.89 26.9937 1477.48 22.5117 1493.43 17.5601C1502.21 13.9317 1510.98 11.4133 1519.71 10.8583C1528.49 10.3034 1537.26 11.7547 1545.99 15.9807C1563.54 31.6891 1581.1 34.3784 1598.6 14.3586C1616.15 20.0358 1633.66 5.69336 1651.21 12.7366C1668.76 7.74225 1686.27 21.0603 1703.82 11.0717C1721.37 -5.36243 1738.88 1.16858 1756.43 9.40698C1773.98 20.2493 1791.48 22.2556 1809.03 7.69958C1819.59 5.30914 1830.37 39.6716 1840.88 7.82764C1851.44 26.6096 1861.73 -2.75854 1871.44 14.572C1882.94 17.1332 1892.25 8.68134 1899.82 35.3175C1907.39 50.5992 1913.23 57.8985 1917.77 65.7527C1922.31 77.0219 1925.57 89.1875 1927.93 101.566C1930.29 113.903 1931.85 126.452 1932.92 138.405C1953.9 366.306 1963.65 595.061 1964.14 823.817L-3.05176e-05 823.859Z" fill="#8C8C8C"/>
</svg>
