<svg width="1920" height="854" viewBox="0 0 1920 854" fill="none" xmlns="http://www.w3.org/2000/svg">
<path d="M-3.05176e-05 853.859V28.4796C2.00451 30.7419 4.00906 32.2786 6.0136 30.1443C11.7154 34.9678 17.3281 26.7294 22.9854 24.6378C28.5981 27.0282 34.2109 7.17914 39.8236 11.1489C45.4363 -4.30347 51.0045 -3.44971 56.6172 33.3884C62.2299 33.5592 67.8427 38.7669 73.4554 31.3395C79.1127 38.7669 84.7699 37.7851 90.4717 40.9439C97.6436 37.4863 104.771 45.554 111.943 39.9194C119.07 33.6019 126.242 28.4368 133.369 42.9927C140.496 36.4618 147.624 41.883 154.795 36.9741C161.923 35.1385 169.05 33.3457 176.222 38.2119C183.349 31.5956 190.476 32.4493 197.648 33.6873C204.775 37.0168 211.947 25.0219 219.074 29.632C226.202 22.8022 233.374 18.619 240.501 16.7408C247.673 28.1807 254.8 11.4904 261.972 20.4545C269.143 22.8876 276.315 14.9907 283.487 9.44147C290.659 13.0271 297.831 15.759 305.047 13.7527C312.219 18.4909 319.435 2.0141 326.652 5.38629C333.868 -12.5419 341.084 20.7106 348.301 12.6429C354.403 9.09998 360.417 14.6064 366.431 6.53876C372.444 6.66681 378.413 8.28894 384.338 17.5945C390.263 -1.48621 396.187 19.5154 402.067 15.2468C407.947 12.3868 413.827 39.4926 419.707 26.3025C425.587 13.1979 431.423 15.631 437.303 28.9491C443.183 58.616 449.018 22.8876 454.898 36.4191C460.778 60.7075 466.658 53.6643 472.538 50.8896C478.418 67.025 484.342 39.9194 490.312 45.5967C497.973 50.2495 505.68 47.7736 513.431 39.2364C521.182 36.4618 528.977 75.4769 536.772 52.9386C544.568 50.6335 552.408 52.8106 560.292 52.5545C568.132 38.6388 576.017 56.2682 583.857 54.6888C591.697 61.8174 599.537 38.7242 607.377 53.4509C615.217 72.489 623.012 51.6581 630.808 50.9324C638.603 41.9257 646.31 43.0354 654.016 43.7611C661.722 32.3212 669.34 43.5904 676.912 41.7122C684.485 25.7049 692.013 30.0588 699.408 41.328C706.847 46.2369 714.197 34.8397 721.458 27.1135C729.253 25.3207 737.093 18.9604 745.111 18.0214C753.13 27.7538 761.281 6.9657 769.745 13.5394C774.378 11.7465 778.877 29.9735 783.331 12.5149C787.786 14.3504 792.196 32.3212 796.606 18.4909C801.016 14.3503 805.337 9.56952 809.702 16.2712C814.068 13.6674 818.433 7.60596 822.843 27.4551C827.743 14.8199 832.732 37.4863 837.766 26.7294C842.8 44.7856 847.833 28.6929 852.956 33.4738C858.034 35.3519 863.157 33.6871 868.324 44.0599C873.447 35.3092 878.614 36.5898 883.781 35.2239C888.949 17.8079 894.116 20.3265 899.283 21.0948C904.451 10.8501 909.618 36.5045 914.785 34.8824C923.56 40.7731 932.336 41.6268 941.111 36.163C949.887 35.9069 958.662 53.1521 967.438 33.5591C976.213 31.809 984.989 23.9121 993.764 27.6258C1002.54 32.1932 1011.32 37.7851 1020.09 32.2359C1028.87 29.9308 1037.64 25.15 1046.42 24.7657C1055.19 30.6992 1063.97 29.7174 1072.74 30.8699C1081.52 18.1921 1090.29 21.4789 1099.07 24.3817C1107.84 20.4545 1116.62 55.8413 1125.4 29.5039C1134.17 8.50232 1142.95 24.9792 1151.72 29.4186C1160.5 39.6633 1169.27 28.5649 1178.05 28.0953C1186.82 25.6195 1195.6 25.4061 1204.37 30.4431C1213.15 32.492 1221.93 30.7418 1230.7 26.6866C1239.48 4.87402 1248.25 16.3993 1257.03 27.3696C1265.8 19.1739 1274.58 18.2775 1283.35 25.2354C1292.13 31.9371 1300.9 27.8392 1309.68 27.327C1318.46 61.476 1327.23 26.2172 1336.01 23.7414C1344.78 28.3088 1353.56 25.9611 1362.33 20.9241C1371.11 12.3442 1379.88 28.4368 1388.66 22.2473C1397.43 19.3446 1406.21 30.9125 1414.99 27.8818C1423.76 9.86829 1432.54 29.3759 1441.31 20.7106C1450.09 36.4191 1458.86 17.1677 1467.64 26.0037C1476.41 25.1927 1485.19 9.35608 1493.96 19.174C1502.74 14.948 1511.52 12.1734 1520.29 12.4722C1529.07 25.7903 1537.84 9.52679 1546.57 17.5945C1555.35 19.7288 1564.12 22.1193 1572.9 30.187C1581.67 26.3452 1590.45 38.2973 1599.23 16.0151C1608 20.8813 1616.78 14.7772 1625.55 14.6918C1634.33 3.84955 1643.1 -3.44983 1651.88 14.393C1660.65 17.0396 1669.43 22.5035 1678.16 15.4603C1686.94 15.5883 1695.71 21.0094 1704.49 12.7283C1713.26 20.924 1722.04 5.98383 1730.77 2.65436C1739.54 0.904175 1748.32 4.23376 1757.09 11.0635C1765.87 19.5581 1774.65 16.442 1783.42 19.7288C1792.2 -3.19366 1800.97 13.1551 1809.7 9.35602C1814.96 10.7647 1820.3 4.02026 1825.65 20.4545C1831 19.7715 1836.3 18.6616 1841.55 9.48413C1846.81 25.6195 1852.02 16.9116 1857.14 13.3687C1862.27 36.9741 1867.26 -2.55334 1872.07 16.1859C1877.81 14.6492 1883.02 30.9553 1887.75 17.5092C1892.47 25.8757 1896.7 6.92297 1900.49 36.8887C1904.27 30.4431 1907.61 43.4196 1910.6 54.8595C1913.58 31.5529 1916.17 54.2192 1918.44 67.2812C1920.71 86.49 1922.67 84.1849 1924.32 84.7825C1926.01 110.48 1927.39 101.003 1928.59 103.095C1929.8 109.284 1930.78 115.474 1931.58 121.663C1932.38 127.853 1933.05 133.957 1933.58 139.933C1955.46 377.268 1965.39 615.542 1964.99 853.817L-3.05176e-05 853.859Z" fill="#2C2C2C"/>
</svg>
