<svg width="28" height="29" viewBox="0 0 28 29" fill="none" xmlns="http://www.w3.org/2000/svg">
<path d="M6.46065 2.2946C6.86496 1.97115 6.93051 1.38119 6.60706 0.976883C6.28362 0.572575 5.69366 0.507024 5.28935 0.83047L2.16435 3.33047C1.76004 3.65392 1.69449 4.24388 2.01794 4.64819C2.34138 5.05249 2.93134 5.11805 3.33565 4.7946L6.46065 2.2946Z" fill="#E6783F"/>
<path d="M22.7107 0.83047C22.3063 0.507024 21.7164 0.572575 21.3929 0.976883C21.0695 1.38119 21.135 1.97115 21.5393 2.2946L24.6643 4.7946C25.0687 5.11805 25.6586 5.05249 25.9821 4.64819C26.3055 4.24388 26.24 3.65392 25.8357 3.33047L22.7107 0.83047Z" fill="#E6783F"/>
<path d="M14.9375 10.3125C14.9375 9.79477 14.5178 9.37503 14 9.37503C13.4822 9.37503 13.0625 9.79477 13.0625 10.3125V15.5698C13.0625 15.9683 12.9103 16.3518 12.6369 16.6417L10.8179 18.5711C10.4627 18.9478 10.4801 19.5411 10.8569 19.8963C11.2336 20.2515 11.8269 20.234 12.1821 19.8573L14.0012 17.9279C14.6025 17.2901 14.9375 16.4465 14.9375 15.5698V10.3125Z" fill="#E6783F"/>
<path fill-rule="evenodd" clip-rule="evenodd" d="M14 1.87503C6.57867 1.87503 0.5625 7.89121 0.5625 15.3125C0.5625 22.7339 6.57867 28.75 14 28.75C21.4213 28.75 27.4375 22.7339 27.4375 15.3125C27.4375 7.89121 21.4213 1.87503 14 1.87503ZM2.4375 15.3125C2.4375 8.92674 7.61421 3.75003 14 3.75003C20.3858 3.75003 25.5625 8.92674 25.5625 15.3125C25.5625 21.6983 20.3858 26.875 14 26.875C7.61421 26.875 2.4375 21.6983 2.4375 15.3125Z" fill="#E6783F"/>
</svg>
